<?xml version="1.0" encoding="utf-8"?>
<svg version="1.1" id="SeisComP" xmlns="http://www.w3.org/2000/svg" xmlns:xlink="http://www.w3.org/1999/xlink" x="0" y="0" viewBox="0 0 506.8 204.8" xml:space="preserve" fill="#000">
	<g class="rings">
		<path d="M109.4,175.4c-16.7,5-33.4,6.5-48.6,3.3c-46.6-11.9-39.4-61.7-17.2-93C59.8,62,83.1,41.1,108.8,27.6 c17.4-9.1,36.6-13.8,55.2-14.9c31.4-2.3,58.3,15.4,54.8,49.8c-0.6,5-1.6,9.9-3.2,14.9h12.4c1.5-5.4,2.4-11,2.9-16.5 c1.6-24-12.3-43.2-34.5-49.3c-39.1-10.2-81.9,8.7-113.6,32.1c-31.2,23.8-61.5,59.7-62.5,100.1c0.4,44.9,46,56.2,86.3,44.7 c0.9-0.2,1.8-0.5,2.7-0.7V175.4z"/>
		<path d="M152.4,26.5c-22.3,0.1-45.8,11.1-63.8,24.6c-22.2,17.1-46.3,44.6-43.1,73.8c5.3,28.2,37.3,29.6,61.8,21.1 c0.7-0.2,1.4-0.5,2.1-0.8v-9.6c-10.2,3.9-20.6,5.9-30.7,5.3c-33.1-3-34.1-34.6-19.2-57.2c11.4-18,29.9-35,49.2-44.8 c20.2-10.3,56.4-17.3,67.8,8.4c4.4,9.8,2.2,20.1-2.6,30h10.1c1.4-3.6,2.5-7.1,3.2-10.5C192.6,42.1,176.4,26.1,152.4,26.5z"/>
		<path d="M123.1,46.6C100.3,52.3,75.9,71.3,70,94.7c-4.6,23.7,20.6,26.4,38,18.9c0.4-0.2,0.9-0.4,1.3-0.5v-8.3 c-0.5,0.2-1,0.5-1.5,0.7c-13.9,6.2-36.4,5.6-33.1-13.7c3.6-16.3,15.8-30,33.3-39.3C127.9,43,151.5,47,142.8,73 c-0.5,1.5-1.1,3-1.8,4.4h8.2C158.5,58.3,150.6,40.6,123.1,46.6z"/>
		<path d="M116.5,68.3c-1-0.2-2.3-0.3-3.6,0c-1.3,0.2-2.8,0.7-4.3,1.4c-1.5,0.7-2.9,1.6-4.3,2.5c-1.3,1-2.5,2.1-3.5,3.3 c-1,1.2-1.9,2.4-2.5,3.6c-0.6,1.2-1,2.5-1.1,3.6c-0.1,1.2,0.1,2.2,0.6,2.9c0.5,0.8,1.3,1.4,2.3,1.7c1,0.4,2.2,0.5,3.6,0.3 c1.4-0.1,2.9-0.6,4.6-1.3c1.7-0.7,3.2-1.7,4.7-2.7c1.4-1.1,2.7-2.3,3.8-3.6c1.1-1.3,1.9-2.6,2.5-3.9c0.6-1.3,0.8-2.6,0.8-3.7 c-0.1-1.1-0.4-2.1-1.1-2.8C118.4,69,117.6,68.5,116.5,68.3z"/>
	</g>
	<g class="text">
		<path d="M124.6,128.6c3.9,2.6,10.2,5.3,17.3,5.3c6.6,0,10.6-2.1,10.6-6.1c0-3-2-4.6-7.6-6.1l-9-2.2 c-9.7-2.4-13.9-7.6-13.9-15c0-9,6.7-16.3,21.3-16.3c7.8,0,15.4,2.2,19.5,4.3l-3.2,10.2c-4-2.3-10.8-4.3-16.7-4.3 c-6.6,0-9.3,2-9.3,5.1c0,3,2,4.1,5.9,5.2l10,2.8c9.8,2.7,14.6,7.6,14.6,15.4c0,10.2-9.4,17.2-22.6,17.2c-7.9,0-16.2-2.7-19.7-4.7 L124.6,128.6z"/>
		<path d="M208.3,138.8c-4.3,3.5-10.5,5.7-17.6,5.7c-15.8,0-22.8-9.6-22.8-21.9c0-12.5,8.6-22.2,22.1-22.2 c12.7,0,18.7,7.8,18.7,17.5c0,2.6-0.4,6.6-0.9,8.2h-28.4c1,5.8,4.8,9.1,11.6,9.1c5.3,0,10.2-2.2,13-4.3L208.3,138.8z M198,115.9 c0-3.4-2.6-6.2-8.2-6.2c-6,0-9.2,3.6-10,7.7h18.2C198,116.9,198,116.3,198,115.9z"/>
		<path d="M215.3,101.4h11.2v41.9h-11.2V101.4z"/>
		<path d="M263.3,113.4c-3.8-1.9-8.6-3.3-12.9-3.3c-3.5,0-5.8,1-5.8,3.4c0,2.1,1,2.3,4.2,3.1l6.7,1.7 c8.9,2.2,12.1,6.4,12.1,12.5c0,8.2-7,13.3-17.9,13.3c-7.3,0-13-2-16.2-3.6l2.1-9.5c3.7,1.9,8.8,3.8,13.7,3.8c4,0,7-0.7,7-3.2 c0-1.7-1.9-2.8-5.1-3.6l-6.2-1.6c-8-2-11.4-5.5-11.4-12c0-8.1,6.3-13.7,17.8-13.7c5.4,0,11.8,1.5,15,3L263.3,113.4z"/>
		<path d="M300,133.7c7,0,12.2-2.5,15.9-5.4l5.3,7.9c-5.7,5.2-13,7.8-21.3,7.8c-16.2,0-28.5-12.1-28.5-28 s12.2-28,28.5-28c8.3,0,15.6,2.6,21.3,7.8l-5.3,7.9c-3.7-2.9-8.9-5.4-15.9-5.4c-10.1,0-17,7.8-17,17.6 C283,125.9,289.9,133.7,300,133.7z"/>
		<path d="M345.4,100.3c13.1,0,22.6,9.4,22.6,22.2c0,12.6-9.4,21.9-22.6,21.9c-13,0-22.4-9.4-22.4-21.9 C323,109.8,332.5,100.3,345.4,100.3z M345.4,134.2c7,0,11.8-5.1,11.8-11.7c0-6.7-4.7-11.9-11.8-11.9c-6.9,0-11.6,5.2-11.6,11.9 C333.8,129.1,338.6,134.2,345.4,134.2z"/>
		<path d="M385.5,101.4v4.6c3.1-3.3,7.6-5.4,13.7-5.4c7.4,0,11.5,2.6,14,7c2.9-3.5,8.1-6.9,15.3-6.9 c11.4,0,15.9,8.2,15.9,18.5v24.1h-11.2v-22.3c0-6.2-2.5-10-8.4-10c-5.5,0-8.4,3.1-9.7,6.4v25.9h-11.2V121c0-6.1-2.4-9.9-8.4-9.9 c-5.6,0-8.6,3.2-9.9,6.6v25.7h-11.2v-41.9H385.5z"/>
		<path d="M451.7,88.9h26c10.6,0,19.8,6.2,19.8,19.9c0,12.2-9.1,19.5-19.8,19.5h-14.8v15h-11.2V88.9z M462.9,98.6v19.9 h13c5.5,0,9.9-3.8,9.9-9.8c0-6.5-4.4-10-9.9-10H462.9z"/>
	</g>
</svg>
