<?xml version="1.0" encoding="utf-8"?>
<svg version="1.1" id="SeisComP" xmlns="http://www.w3.org/2000/svg" xmlns:xlink="http://www.w3.org/1999/xlink" x="0" y="0" viewBox="0 0 512 512" xml:space="preserve">
	<g class="rings">
		<linearGradient id="gradient1" gradientUnits="userSpaceOnUse" x1="187.3543" y1="449.4612" x2="291.0756" y2="154.0524">
			<stop  offset="0" style="stop-color:#005B9D"/>
			<stop  offset="0.6453" style="stop-color:#0086A3"/>
			<stop  offset="1" style="stop-color:#0098A5"/>
		</linearGradient>
		<path fill="url(#gradient1)" d="M219.5,422.2c-37.1,11.1-74.2,14.5-108.1,7.4C7.8,403.2,23.9,292.4,73.2,222.7 c36.1-52.8,87.9-99.2,145.1-129.3c38.7-20.2,81.3-30.7,122.7-33.1c69.9-5.1,129.6,34.3,122,110.8c-1.3,11-3.7,22.1-7,33.1h27.7 c3.2-12.1,5.4-24.4,6.5-36.8c3.5-53.3-27.5-96-76.8-109.6C326.3,35.1,231,77.2,160.6,129.1c-69.3,53-136.9,132.8-139,222.6 c1,99.9,102.4,125.1,191.9,99.5c2-0.5,4-1.1,6-1.7V422.2z"/>
		<linearGradient id="gradient2" gradientUnits="userSpaceOnUse" x1="161.1259" y1="440.2521" x2="264.8472" y2="144.8433">
			<stop  offset="0" style="stop-color:#005B9D"/>
			<stop  offset="0.6453" style="stop-color:#0086A3"/>
			<stop  offset="1" style="stop-color:#0098A5"/>
		</linearGradient>
		<path fill="url(#gradient2)" d="M315.2,91.1c-49.7,0.1-101.8,24.6-142,54.7c-49.3,37.9-103.1,99.1-95.8,164.1c11.9,62.6,82.9,65.9,137.5,46.8 c1.6-0.5,3.1-1.1,4.7-1.7v-21.4c-22.6,8.6-45.9,13.2-68.4,11.8c-73.7-6.6-75.7-76.9-42.6-127.2c25.4-40.1,66.6-77.9,109.4-99.7 c45-22.9,125.4-38.4,150.8,18.8c9.7,21.8,4.9,44.7-5.8,66.8h22.4c3.2-8,5.6-15.8,7.1-23.4C404.6,125.6,368.7,90.2,315.2,91.1z"/>
		<linearGradient id="gradient3" gradientUnits="userSpaceOnUse" x1="145.9483" y1="434.9231" x2="249.6696" y2="139.5143">
			<stop  offset="0" style="stop-color:#005B9D"/>
			<stop  offset="0.6453" style="stop-color:#0086A3"/>
			<stop  offset="1" style="stop-color:#0098A5"/>
		</linearGradient>
		<path fill="url(#gradient3)" d="M250.1,135.6c-50.7,12.7-105,55-118.1,107.1c-10.3,52.6,45.9,58.8,84.5,42.1c1-0.4,2-0.8,3-1.2v-18.4 c-1.1,0.5-2.3,1-3.4,1.5c-30.8,13.7-80.9,12.6-73.6-30.4c8-36.2,35.2-66.7,74.1-87.3c44.3-21.4,96.7-12.5,77.4,45.4 c-1.1,3.4-2.5,6.6-4,9.8h18.2C328.9,161.7,311.2,122.4,250.1,135.6z"/>
		<linearGradient id="gradient4" gradientUnits="userSpaceOnUse" x1="138.3372" y1="432.2507" x2="242.0585" y2="136.842">
			<stop  offset="0" style="stop-color:#005B9D"/>
			<stop  offset="0.6453" style="stop-color:#0086A3"/>
			<stop  offset="1" style="stop-color:#0098A5"/>
		</linearGradient>
		<path fill="url(#gradient4)" d="M235.4,183.9c-2.3-0.5-5-0.6-8-0.1c-3,0.5-6.2,1.5-9.5,3c-3.4,1.5-6.5,3.5-9.5,5.7c-2.9,2.2-5.6,4.7-7.8,7.2 c-2.3,2.6-4.2,5.3-5.5,8c-1.4,2.7-2.2,5.5-2.4,8c-0.2,2.6,0.3,4.8,1.4,6.6c1.1,1.8,2.8,3.1,5,3.9c2.2,0.8,4.9,1.1,8,0.8 c3.1-0.3,6.6-1.2,10.2-2.8c3.7-1.6,7.2-3.7,10.4-6.1c3.2-2.4,6.1-5.1,8.5-8c2.4-2.8,4.3-5.8,5.6-8.7c1.3-2.9,1.9-5.7,1.8-8.2 c-0.1-2.5-1-4.6-2.4-6.1C239.7,185.4,237.8,184.4,235.4,183.9z"/>
	</g>
	<g class="wavelet" fill="#000">
		<path d="M463.5,229.2c-5.2-5.4-13.8-5.6-19.2-0.4L288.4,377.7l76.2-140.5l0.1-0.2c1.4-2.5,1.1-5.7-1-8c-2.6-2.9-7-3.1-9.8-0.5 l-99.3,89.7l25.5-86.3l0-0.1c0.3-1.2,0.1-2.6-0.8-3.6c-1.4-1.6-3.8-1.7-5.4-0.3l-31.4,27.7l-5.3-29l-0.5,35.9c0,0.8,0.3,1.6,0.8,2.2 c1.2,1.4,3.3,1.6,4.7,0.4l0.3-0.2l26.2-22.4l-29,90.2c-0.5,1.6-0.2,3.5,1,4.9c1.8,2.1,5.1,2.4,7.2,0.5l0.1-0.1l84.1-72.4 l-90.9,157.6c-2.1,3.6-1.7,8.3,1.2,11.5c3.6,4,9.9,4.3,13.9,0.7l0.2-0.2l206.3-186.8c0.1-0.1,0.2-0.2,0.3-0.2 C468.5,243.2,468.7,234.6,463.5,229.2z"/>
	</g>
</svg>
