<svg width="34.672mm" height="21.353mm" version="1.1" viewBox="0 0 34.672 21.353" xmlns="http://www.w3.org/2000/svg"><g fill="#002f3a"><g transform="scale(.26458)" image-rendering="auto"><path d="m18.841 21.152c-2.168 0.783-4.518 1.175-7.051 1.175-3.629 0-6.502-0.96-8.617-2.879-2.115-1.921-3.173-4.589-3.173-8.01 0-3.628 1.038-6.384 3.114-8.264 2.076-1.881 5.008-2.821 8.793-2.821 2.378 0 4.635 0.418 6.777 1.253l-1.371 3.644c-1.959-0.575-3.773-0.862-5.445-0.862-2.09 0-3.76 0.542-5.014 1.626-1.253 1.083-1.88 2.787-1.88 5.11 0 2.376 0.679 4.152 2.036 5.327 1.358 1.176 3.108 1.763 5.25 1.763 0.521 0 1.097-0.024 1.724-0.078v-5.68h4.856z"/><path d="m41.676 12.73h-13.984c0.025 2.141 0.607 3.564 1.742 4.27 1.137 0.704 2.814 1.057 5.035 1.057 2.114 0 4.047-0.182 5.797-0.547l0.782 3.994c-1.697 0.549-4.204 0.823-7.521 0.823-3.604 0-6.332-0.79-8.186-2.37-1.854-1.579-2.781-4.354-2.781-8.323 0-7.703 3.471-11.555 10.42-11.555 5.796 0 8.694 3.59 8.694 10.771v1.88zm-5.327-3.642c0.025-1.594-0.319-2.84-1.037-3.741-0.719-0.901-1.652-1.351-2.802-1.351-1.201 0-2.259 0.425-3.172 1.272-0.915 0.849-1.425 2.122-1.528 3.819z"/><path d="m77.984 21.975h-5.17v-13.004c0-1.567-0.235-2.709-0.705-3.428-0.471-0.718-1.356-1.077-2.664-1.077-1.33 0-3.055 0.613-5.17 1.841 0.078 0.445 0.117 1.123 0.117 2.037v13.631h-5.13v-13.004c0-1.619-0.229-2.763-0.686-3.428-0.457-0.666-1.352-0.998-2.682-0.998-1.176 0-2.861 0.586-5.055 1.762v15.667h-5.17v-21.386h5.17v2.232c0.758-0.547 1.346-0.952 1.764-1.215 0.418-0.26 1.148-0.592 2.192-0.998 1.047-0.404 2.026-0.607 2.94-0.607 3.055 0 5.053 1.058 5.992 3.174 2.689-2.116 5.184-3.174 7.482-3.174 0.941 0 1.77 0.099 2.486 0.293 0.72 0.196 1.312 0.438 1.783 0.726 0.47 0.288 0.867 0.679 1.193 1.175 0.326 0.498 0.574 0.947 0.744 1.352 0.17 0.406 0.301 0.94 0.393 1.605 0.092 0.666 0.144 1.202 0.156 1.607 0.014 0.404 0.02 0.945 0.02 1.625z"/><path d="m103.05 10.458c0 2.142-0.307 4.003-0.919 5.583-0.614 1.579-1.464 2.812-2.549 3.7-1.083 0.889-2.271 1.536-3.563 1.938-1.291 0.403-2.707 0.607-4.248 0.607-1.438 0-2.532-0.053-3.291-0.157v8.461h-5.17v-30.002h5.131v1.566c0.627-0.495 1.463-0.953 2.508-1.371 1.043-0.416 2.037-0.625 2.977-0.625 6.083 0 9.124 3.434 9.124 10.3zm-5.209 0.392c0-2.14-0.412-3.74-1.232-4.798-0.824-1.058-2.2-1.586-4.133-1.586-1.071 0-2.402 0.379-3.996 1.137v12.415c0.992 0.157 2.141 0.235 3.447 0.235 1.879 0 3.336-0.679 4.366-2.036 1.033-1.358 1.548-3.147 1.548-5.367z"/><path d="m125.54 18.214-0.235 3.956c-3.863 0.182-5.98-0.626-6.345-2.429-2.299 1.698-4.505 2.547-6.62 2.547-2.191 0-3.878-0.53-5.053-1.588-1.176-1.058-1.764-2.604-1.764-4.641 0-4.177 2.924-6.292 8.773-6.345 2.377-0.026 3.801-0.04 4.271-0.04v-2.271c0-1.2-0.334-1.991-1-2.369s-1.836-0.568-3.506-0.568c-1.356 0-3.344 0.326-5.953 0.979l-1.02-3.84c2.717-1.018 5.34-1.526 7.874-1.526 1.278 0 2.368 0.064 3.271 0.196 0.9 0.13 1.789 0.397 2.664 0.803 0.875 0.405 1.539 1.037 1.996 1.899 0.457 0.861 0.688 1.958 0.688 3.29v10.576c0 0.522 0.163 0.875 0.488 1.058 0.33 0.183 0.818 0.287 1.471 0.313zm-6.972-1.526v-3.799l-3.957 0.194c-1.619 0.08-2.703 0.34-3.252 0.785-0.547 0.443-0.821 1.07-0.821 1.879 0 1.646 0.86 2.468 2.586 2.468 0.495 0 1.114-0.104 1.858-0.313 0.746-0.209 1.496-0.457 2.252-0.743 0.758-0.29 1.204-0.446 1.334-0.471z"/></g><g direction="rtl" image-rendering="auto" stroke-width=".26458" style="font-feature-settings:normal;font-variant-caps:normal;font-variant-ligatures:normal;font-variant-numeric:normal" aria-label="SeisComPdevelopmentservices and trainings"><path d="m1.553 10.454v0.30541q-0.17828-0.08527-0.33641-0.12712-0.15813-0.04186-0.30541-0.04186-0.2558 0-0.39532 0.09922-0.13798 0.09922-0.13798 0.28215 0 0.15348 0.091467 0.23254 0.093018 0.07752 0.35037 0.12557l0.18914 0.03876q0.35037 0.06666 0.51625 0.23564 0.16743 0.16743 0.16743 0.44958 0 0.33641-0.22634 0.51005-0.22479 0.17363-0.66042 0.17363-0.16433 0-0.35037-0.03721-0.18448-0.037206-0.38292-0.11007v-0.32246q0.19069 0.10697 0.37362 0.16123 0.18293 0.05426 0.35967 0.05426 0.2682 0 0.41393-0.10542 0.14573-0.10542 0.14573-0.30076 0-0.17053-0.10542-0.26665-0.10387-0.096117-0.34261-0.14418l-0.19069-0.037207q-0.35037-0.069763-0.50695-0.21859-0.15658-0.14883-0.15658-0.41393 0-0.30696 0.21549-0.48369 0.21704-0.17673 0.59686-0.17673 0.16278 0 0.33176 0.02946 0.16898 0.02946 0.34572 0.08837z" direction="ltr"/><path d="m3.6537 11.754v0.13953h-1.3115q0.018603 0.29456 0.17673 0.44958 0.15968 0.15348 0.44338 0.15348 0.16433 0 0.31781-0.04031 0.15503-0.04031 0.30696-0.12092v0.26975q-0.15348 0.06511-0.31471 0.09922-0.16123 0.03411-0.32711 0.03411-0.41548 0-0.65887-0.24185-0.24185-0.24185-0.24185-0.65422 0-0.42633 0.22944-0.67593 0.23099-0.25115 0.62167-0.25115 0.35037 0 0.55345 0.22634 0.20464 0.22479 0.20464 0.61237zm-0.28525-0.08372q-0.0031-0.23409-0.13177-0.37362-0.12712-0.13953-0.33796-0.13953-0.23875 0-0.38292 0.13488-0.14263 0.13488-0.16433 0.37982z" direction="ltr"/><path d="m4.1219 10.957h0.28525v1.7363h-0.28525zm0-0.67593h0.28525v0.36122h-0.28525z" direction="ltr"/><path d="m6.1109 11.008v0.26975q-0.12092-0.06201-0.25115-0.09302t-0.26975-0.03101q-0.21239 0-0.31936 0.06511-0.10542 0.06511-0.10542 0.19534 0 0.09922 0.075964 0.15658 0.075964 0.05581 0.30541 0.10697l0.097668 0.0217q0.30386 0.06511 0.43098 0.18448 0.12867 0.11782 0.12867 0.33021 0 0.24184-0.19224 0.38292-0.19069 0.14108-0.52555 0.14108-0.13953 0-0.29146-0.02791-0.15038-0.02636-0.31781-0.08061v-0.29456q0.15813 0.08217 0.31161 0.12402 0.15348 0.04031 0.30386 0.04031 0.20154 0 0.31006-0.06821 0.10852-0.06976 0.10852-0.19534 0-0.11627-0.079065-0.17828-0.077515-0.06201-0.34261-0.11937l-0.099219-0.02325q-0.2651-0.05581-0.38292-0.17053-0.11782-0.11627-0.11782-0.31781 0-0.24495 0.17363-0.37827 0.17363-0.13332 0.49299-0.13332 0.15813 0 0.29766 0.02325 0.13953 0.02325 0.25735 0.06976z" direction="ltr"/><path d="m8.4038 10.557v0.33021q-0.15813-0.14728-0.33796-0.22014-0.17828-0.07286-0.37982-0.07286-0.39688 0-0.60771 0.2434-0.21084 0.24185-0.21084 0.70073 0 0.45734 0.21084 0.70073 0.21084 0.24185 0.60771 0.24185 0.20154 0 0.37982-0.07286 0.17983-0.07286 0.33796-0.22014v0.32711q-0.16433 0.11162-0.34882 0.16743-0.18293 0.05581-0.38757 0.05581-0.52555 0-0.82786-0.32091-0.30231-0.32246-0.30231-0.87902 0-0.55811 0.30231-0.87902 0.30231-0.32246 0.82786-0.32246 0.20774 0 0.39067 0.05581 0.18448 0.05426 0.34572 0.16433z" direction="ltr"/><path d="m9.5479 11.157q-0.22944 0-0.36277 0.17983-0.13333 0.17828-0.13333 0.48989t0.13177 0.49144q0.13333 0.17828 0.36432 0.17828 0.22789 0 0.36122-0.17983 0.13332-0.17983 0.13332-0.48989 0-0.30851-0.13332-0.48834-0.13333-0.18138-0.36122-0.18138zm0-0.24185q0.37207 0 0.58446 0.24185 0.21239 0.24185 0.21239 0.66973 0 0.42633-0.21239 0.66973-0.21239 0.24185-0.58446 0.24185-0.37362 0-0.58601-0.24185-0.21084-0.2434-0.21084-0.66973 0-0.42788 0.21084-0.66973 0.21239-0.24185 0.58601-0.24185z" direction="ltr"/><path d="m12.169 11.29q0.10697-0.19224 0.2558-0.2837 0.14883-0.09147 0.35037-0.09147 0.2713 0 0.41858 0.19069 0.14728 0.18914 0.14728 0.5395v1.048h-0.2868v-1.0387q0-0.2496-0.08837-0.37052t-0.26975-0.12092q-0.22169 0-0.35037 0.14728t-0.12867 0.40153v0.98134h-0.2868v-1.0387q0-0.25115-0.08837-0.37052-0.08837-0.12092-0.27285-0.12092-0.21859 0-0.34726 0.14883-0.12868 0.14728-0.12868 0.39998v0.98134h-0.2868v-1.7363h0.2868v0.26975q0.09767-0.15968 0.2341-0.23564 0.13642-0.07596 0.32401-0.07596 0.18914 0 0.32091 0.09612 0.13333 0.09612 0.19689 0.27905z" direction="ltr"/><path d="m14.236 10.636v0.86972h0.39378q0.21859 0 0.33796-0.11317 0.11937-0.11317 0.11937-0.32246 0-0.20774-0.11937-0.32091-0.11937-0.11317-0.33796-0.11317zm-0.31316-0.25735h0.70693q0.38912 0 0.58756 0.17673 0.19999 0.17518 0.19999 0.5147 0 0.34262-0.19999 0.5178-0.19844 0.17518-0.58756 0.17518h-0.39378v0.93018h-0.31316z" direction="ltr"/><path d="m1.2957 15.22v-0.93948h0.28525v2.4123h-0.28525v-0.26045q-0.089917 0.15503-0.22789 0.23099-0.13643 0.07441-0.32866 0.07441-0.31471 0-0.51315-0.25115-0.19689-0.25115-0.19689-0.66042 0-0.40928 0.19689-0.66042 0.19844-0.25115 0.51315-0.25115 0.19224 0 0.32866 0.07596 0.13798 0.07442 0.22789 0.22944zm-0.97203 0.60616q0 0.31471 0.12867 0.49454 0.13022 0.17828 0.35657 0.17828 0.22634 0 0.35657-0.17828 0.13022-0.17983 0.13022-0.49454 0-0.31471-0.13022-0.49299-0.13022-0.17983-0.35657-0.17983-0.22634 0-0.35657 0.17983-0.12867 0.17828-0.12867 0.49299z" direction="ltr"/><path d="m3.6537 15.754v0.13953h-1.3115q0.018603 0.29456 0.17673 0.44958 0.15968 0.15348 0.44338 0.15348 0.16433 0 0.31781-0.04031 0.15503-0.04031 0.30696-0.12092v0.26975q-0.15348 0.06511-0.31471 0.09922-0.16123 0.03411-0.32711 0.03411-0.41548 0-0.65887-0.24185-0.24185-0.24185-0.24185-0.65422 0-0.42633 0.22944-0.67593 0.23099-0.25115 0.62167-0.25115 0.35037 0 0.55345 0.22634 0.20464 0.22479 0.20464 0.61237zm-0.28525-0.08372q-0.0031-0.23409-0.13177-0.37362-0.12712-0.13953-0.33796-0.13953-0.23875 0-0.38292 0.13488-0.14263 0.13488-0.16433 0.37982z" direction="ltr"/><path d="m3.9172 14.957h0.30231l0.5426 1.4573 0.5426-1.4573h0.30231l-0.65112 1.7363h-0.38757z" direction="ltr"/><path d="m7.486 15.754v0.13953h-1.3115q0.018604 0.29456 0.17673 0.44958 0.15968 0.15348 0.44338 0.15348 0.16433 0 0.31781-0.04031 0.15503-0.04031 0.30696-0.12092v0.26975q-0.15348 0.06511-0.31471 0.09922t-0.32711 0.03411q-0.41548 0-0.65887-0.24185-0.24185-0.24185-0.24185-0.65422 0-0.42633 0.22944-0.67593 0.23099-0.25115 0.62167-0.25115 0.35037 0 0.55345 0.22634 0.20464 0.22479 0.20464 0.61237zm-0.28525-0.08372q-0.0031-0.23409-0.13177-0.37362-0.12712-0.13953-0.33796-0.13953-0.23875 0-0.38292 0.13488-0.14263 0.13488-0.16433 0.37982z" direction="ltr"/><path d="m7.9542 14.281h0.28525v2.4123h-0.28525z" direction="ltr"/><path d="m9.5092 15.157q-0.22944 0-0.36277 0.17983-0.13333 0.17828-0.13333 0.48989t0.13177 0.49144q0.13333 0.17828 0.36432 0.17828 0.22789 0 0.36122-0.17983 0.13333-0.17983 0.13333-0.48989 0-0.30851-0.13333-0.48834-0.13333-0.18138-0.36122-0.18138zm0-0.24185q0.37207 0 0.58446 0.24185t0.21239 0.66973q0 0.42633-0.21239 0.66973-0.21239 0.24185-0.58446 0.24185-0.37362 0-0.58601-0.24185-0.21084-0.2434-0.21084-0.66973 0-0.42788 0.21084-0.66973 0.21239-0.24185 0.58601-0.24185z" direction="ltr"/><path d="m11.055 16.433v0.92087h-0.2868v-2.3968h0.2868v0.26355q0.08992-0.15503 0.22634-0.22944 0.13798-0.07596 0.32866-0.07596 0.31626 0 0.51315 0.25115 0.19844 0.25115 0.19844 0.66042 0 0.40928-0.19844 0.66042-0.19689 0.25115-0.51315 0.25115-0.19069 0-0.32866-0.07441-0.13643-0.07597-0.22634-0.23099zm0.97048-0.60616q0-0.31471-0.13022-0.49299-0.12868-0.17983-0.35502-0.17983-0.22634 0-0.35657 0.17983-0.12867 0.17828-0.12867 0.49299 0 0.31471 0.12867 0.49454 0.13022 0.17828 0.35657 0.17828 0.22634 0 0.35502-0.17828 0.13022-0.17983 0.13022-0.49454z" direction="ltr"/><path d="m14.146 15.29q0.10697-0.19224 0.2558-0.2837 0.14883-0.09147 0.35037-0.09147 0.2713 0 0.41858 0.19069 0.14728 0.18914 0.14728 0.5395v1.048h-0.2868v-1.0387q0-0.2496-0.08837-0.37052t-0.26975-0.12092q-0.22169 0-0.35037 0.14728-0.12868 0.14728-0.12868 0.40153v0.98134h-0.2868v-1.0387q0-0.25115-0.08837-0.37052-0.08837-0.12092-0.27285-0.12092-0.21859 0-0.34727 0.14883-0.12867 0.14728-0.12867 0.39998v0.98134h-0.2868v-1.7363h0.2868v0.26975q0.09767-0.15968 0.23409-0.23564 0.13643-0.07596 0.32401-0.07596 0.18914 0 0.32091 0.09612 0.13332 0.09612 0.19689 0.27905z" direction="ltr"/><path d="m17.372 15.754v0.13953h-1.3115q0.0186 0.29456 0.17673 0.44958 0.15968 0.15348 0.44338 0.15348 0.16433 0 0.31781-0.04031 0.15503-0.04031 0.30696-0.12092v0.26975q-0.15348 0.06511-0.31471 0.09922-0.16123 0.03411-0.32711 0.03411-0.41548 0-0.65888-0.24185-0.24184-0.24185-0.24184-0.65422 0-0.42633 0.22944-0.67593 0.23099-0.25115 0.62167-0.25115 0.35037 0 0.55345 0.22634 0.20464 0.22479 0.20464 0.61237zm-0.28525-0.08372q-0.0031-0.23409-0.13178-0.37362-0.12712-0.13953-0.33796-0.13953-0.23874 0-0.38292 0.13488-0.14263 0.13488-0.16433 0.37982z" direction="ltr"/><path d="m19.284 15.645v1.048h-0.28525v-1.0387q0-0.2465-0.09612-0.36897t-0.28835-0.12247q-0.23099 0-0.36432 0.14728-0.13333 0.14728-0.13333 0.40153v0.98134h-0.2868v-1.7363h0.2868v0.26975q0.10232-0.15658 0.2403-0.23409 0.13953-0.07752 0.32091-0.07752 0.29921 0 0.45268 0.18604 0.15348 0.18448 0.15348 0.54415z" direction="ltr"/><path d="m20.135 14.464v0.49299h0.58756v0.22169h-0.58756v0.94258q0 0.21239 0.05736 0.27285 0.05891 0.06046 0.2372 0.06046h0.293v0.23874h-0.293q-0.33021 0-0.45579-0.12247-0.12557-0.12402-0.12557-0.44958v-0.94258h-0.20929v-0.22169h0.20929v-0.49299z" direction="ltr"/><g stroke-width=".26458"><path d="m1.26 19.008v0.26975q-0.12092-0.06201-0.25115-0.09302-0.13022-0.03101-0.26975-0.03101-0.21239 0-0.31936 0.06511-0.10542 0.06511-0.10542 0.19534 0 0.09922 0.075964 0.15658 0.075964 0.05581 0.30541 0.10697l0.097668 0.0217q0.30386 0.06511 0.43098 0.18448 0.12867 0.11782 0.12867 0.33021 0 0.24184-0.19224 0.38292-0.19069 0.14108-0.52555 0.14108-0.13953 0-0.29146-0.02791-0.15038-0.02635-0.31781-0.08061v-0.29456q0.15813 0.08217 0.31161 0.12402 0.15348 0.04031 0.30386 0.04031 0.20154 0 0.31006-0.06821 0.10852-0.06976 0.10852-0.19534 0-0.11627-0.079065-0.17828-0.077515-0.06201-0.34261-0.11937l-0.099219-0.02325q-0.2651-0.05581-0.38292-0.17053-0.11782-0.11627-0.11782-0.31781 0-0.24495 0.17363-0.37827 0.17363-0.13332 0.49299-0.13332 0.15813 0 0.29766 0.02325 0.13953 0.02325 0.25735 0.06976z" direction="ltr"/><path d="m3.2925 19.754v0.13953h-1.3115q0.018603 0.29456 0.17673 0.44958 0.15968 0.15348 0.44338 0.15348 0.16433 0 0.31781-0.04031 0.15503-0.04031 0.30696-0.12092v0.26975q-0.15348 0.06511-0.31471 0.09922-0.16123 0.03411-0.32711 0.03411-0.41548 0-0.65887-0.24185-0.24185-0.24185-0.24185-0.65422 0-0.42633 0.22944-0.67593 0.23099-0.25115 0.62167-0.25115 0.35037 0 0.55345 0.22634 0.20464 0.22479 0.20464 0.61237zm-0.28525-0.08372q-0.0031-0.23409-0.13177-0.37362-0.12712-0.13953-0.33796-0.13953-0.23875 0-0.38292 0.13488-0.14263 0.13488-0.16433 0.37982z" direction="ltr"/><path d="m4.7668 19.223q-0.048059-0.02791-0.10542-0.04031-0.055811-0.01395-0.12402-0.01395-0.24185 0-0.37207 0.15813-0.12867 0.15658-0.12867 0.45114v0.91467h-0.2868v-1.7363h0.2868v0.26975q0.089917-0.15813 0.23409-0.23409 0.14418-0.07751 0.35037-0.07751 0.029456 0 0.065112 0.0047 0.035657 0.0031 0.079065 0.01085z" direction="ltr"/><path d="m4.8614 18.957h0.30231l0.5426 1.4573 0.5426-1.4573h0.30231l-0.65112 1.7363h-0.38757z" direction="ltr"/><path d="m6.945 18.957h0.28525v1.7363h-0.28525zm0-0.67593h0.28525v0.36122h-0.28525z" direction="ltr"/><path d="m9.0766 19.023v0.26665q-0.12092-0.06666-0.2434-0.09922-0.12092-0.03411-0.24495-0.03411-0.2775 0-0.43098 0.17673-0.15348 0.17518-0.15348 0.49299t0.15348 0.49454q0.15348 0.17518 0.43098 0.17518 0.12402 0 0.24495-0.03256 0.12247-0.03411 0.2434-0.10077v0.26355q-0.11937 0.05581-0.24805 0.08371-0.12712 0.02791-0.2713 0.02791-0.39222 0-0.62322-0.2465-0.23099-0.24649-0.23099-0.66507 0-0.42478 0.23254-0.66818 0.23409-0.2434 0.64027-0.2434 0.13177 0 0.25735 0.02791 0.12557 0.02635 0.2434 0.08062z" direction="ltr"/><path d="m11.058 19.754v0.13953h-1.3115q0.018603 0.29456 0.17673 0.44958 0.15968 0.15348 0.44338 0.15348 0.16433 0 0.31781-0.04031 0.15503-0.04031 0.30696-0.12092v0.26975q-0.15348 0.06511-0.31471 0.09922-0.16123 0.03411-0.32711 0.03411-0.41548 0-0.65888-0.24185-0.24185-0.24185-0.24185-0.65422 0-0.42633 0.22944-0.67593 0.23099-0.25115 0.62167-0.25115 0.35037 0 0.55346 0.22634 0.20464 0.22479 0.20464 0.61237zm-0.28525-0.08372q-0.0031-0.23409-0.13177-0.37362-0.12712-0.13953-0.33796-0.13953-0.23874 0-0.38292 0.13488-0.14263 0.13488-0.16433 0.37982z" direction="ltr"/><path d="m12.633 19.008v0.26975q-0.12092-0.06201-0.25115-0.09302-0.13022-0.03101-0.26975-0.03101-0.21239 0-0.31936 0.06511-0.10542 0.06511-0.10542 0.19534 0 0.09922 0.07597 0.15658 0.07596 0.05581 0.30541 0.10697l0.09767 0.0217q0.30386 0.06511 0.43098 0.18448 0.12868 0.11782 0.12868 0.33021 0 0.24184-0.19224 0.38292-0.19069 0.14108-0.52555 0.14108-0.13953 0-0.29146-0.02791-0.15038-0.02635-0.31781-0.08061v-0.29456q0.15813 0.08217 0.31161 0.12402 0.15348 0.04031 0.30386 0.04031 0.20154 0 0.31006-0.06821 0.10852-0.06976 0.10852-0.19534 0-0.11627-0.07906-0.17828-0.07751-0.06201-0.34261-0.11937l-0.09922-0.02325q-0.2651-0.05581-0.38292-0.17053-0.11782-0.11627-0.11782-0.31781 0-0.24495 0.17363-0.37827 0.17363-0.13332 0.49299-0.13332 0.15813 0 0.29766 0.02325 0.13953 0.02325 0.25735 0.06976z" direction="ltr"/><path d="m14.979 19.82q-0.34572 0-0.47904 0.07906t-0.13332 0.26975q0 0.15193 0.09922 0.24185 0.10077 0.08837 0.27285 0.08837 0.2372 0 0.37982-0.16743 0.14418-0.16898 0.14418-0.44804v-0.06356zm0.56896-0.11782v0.99064h-0.28525v-0.26355q-0.09767 0.15813-0.2434 0.2341-0.14573 0.07441-0.35657 0.07441-0.26665 0-0.42478-0.14883-0.15658-0.15038-0.15658-0.40152 0-0.29301 0.19534-0.44183 0.19689-0.14883 0.58601-0.14883h0.39998v-0.02791q0-0.19689-0.13022-0.30386-0.12868-0.10852-0.36277-0.10852-0.14883 0-0.2899 0.03566-0.14108 0.03566-0.2713 0.10697v-0.26355q0.15658-0.06046 0.30386-0.08992 0.14728-0.03101 0.2868-0.03101 0.37672 0 0.56276 0.19534t0.18604 0.59221z" direction="ltr"/><path d="m17.578 19.645v1.048h-0.28525v-1.0387q0-0.2465-0.09612-0.36897t-0.28836-0.12247q-0.23099 0-0.36432 0.14728-0.13332 0.14728-0.13332 0.40153v0.98134h-0.2868v-1.7363h0.2868v0.26975q0.10232-0.15658 0.2403-0.23409 0.13953-0.07751 0.32091-0.07751 0.29921 0 0.45269 0.18604 0.15348 0.18448 0.15348 0.54415z" direction="ltr"/><path d="m19.29 19.22v-0.93948h0.28525v2.4123h-0.28525v-0.26045q-0.08992 0.15503-0.22789 0.23099-0.13642 0.07441-0.32866 0.07441-0.31471 0-0.51315-0.25115-0.19689-0.25115-0.19689-0.66042 0-0.40928 0.19689-0.66042 0.19844-0.25115 0.51315-0.25115 0.19224 0 0.32866 0.07596 0.13798 0.07442 0.22789 0.22944zm-0.97203 0.60616q0 0.31471 0.12867 0.49454 0.13022 0.17828 0.35657 0.17828 0.22634 0 0.35657-0.17828 0.13022-0.17983 0.13022-0.49454 0-0.31471-0.13022-0.49299-0.13022-0.17983-0.35657-0.17983-0.22634 0-0.35657 0.17983-0.12867 0.17828-0.12867 0.49299z" direction="ltr"/><path d="m21.454 18.464v0.49299h0.58756v0.22169h-0.58756v0.94258q0 0.21239 0.05736 0.27285 0.05891 0.06046 0.2372 0.06046h0.293v0.23874h-0.293q-0.33021 0-0.45579-0.12247-0.12557-0.12402-0.12557-0.44958v-0.94258h-0.20929v-0.22169h0.20929v-0.49299z" direction="ltr"/><path d="m23.423 19.223q-0.04806-0.02791-0.10542-0.04031-0.05581-0.01395-0.12402-0.01395-0.24185 0-0.37207 0.15813-0.12867 0.15658-0.12867 0.45114v0.91467h-0.2868v-1.7363h0.2868v0.26975q0.08992-0.15813 0.23409-0.23409 0.14418-0.07751 0.35037-0.07751 0.02946 0 0.06511 0.0047 0.03566 0.0031 0.07906 0.01085z" direction="ltr"/><path d="m24.511 19.82q-0.34572 0-0.47904 0.07906t-0.13332 0.26975q0 0.15193 0.09922 0.24185 0.10077 0.08837 0.27285 0.08837 0.2372 0 0.37982-0.16743 0.14418-0.16898 0.14418-0.44804v-0.06356zm0.56896-0.11782v0.99064h-0.28525v-0.26355q-0.09767 0.15813-0.2434 0.2341-0.14573 0.07441-0.35657 0.07441-0.26665 0-0.42478-0.14883-0.15658-0.15038-0.15658-0.40152 0-0.29301 0.19534-0.44183 0.19689-0.14883 0.58601-0.14883h0.39998v-0.02791q0-0.19689-0.13022-0.30386-0.12868-0.10852-0.36277-0.10852-0.14883 0-0.2899 0.03566-0.14108 0.03566-0.2713 0.10697v-0.26355q0.15658-0.06046 0.30386-0.08992 0.14728-0.03101 0.2868-0.03101 0.37672 0 0.56276 0.19534t0.18604 0.59221z" direction="ltr"/><path d="m25.668 18.957h0.28525v1.7363h-0.28525zm0-0.67593h0.28525v0.36122h-0.28525z" direction="ltr"/><path d="m27.993 19.645v1.048h-0.28525v-1.0387q0-0.2465-0.09612-0.36897t-0.28835-0.12247q-0.23099 0-0.36432 0.14728t-0.13332 0.40153v0.98134h-0.2868v-1.7363h0.2868v0.26975q0.10232-0.15658 0.2403-0.23409 0.13953-0.07751 0.32091-0.07751 0.29921 0 0.45268 0.18604 0.15348 0.18448 0.15348 0.54415z" direction="ltr"/><path d="m28.562 18.957h0.28525v1.7363h-0.28525zm0-0.67593h0.28525v0.36122h-0.28525z" direction="ltr"/><path d="m30.888 19.645v1.048h-0.28525v-1.0387q0-0.2465-0.09612-0.36897t-0.28836-0.12247q-0.23099 0-0.36432 0.14728-0.13333 0.14728-0.13333 0.40153v0.98134h-0.2868v-1.7363h0.2868v0.26975q0.10232-0.15658 0.2403-0.23409 0.13953-0.07751 0.32091-0.07751 0.29921 0 0.45269 0.18604 0.15348 0.18448 0.15348 0.54415z" direction="ltr"/><path d="m32.599 19.805q0-0.31006-0.12868-0.48059-0.12712-0.17053-0.35812-0.17053-0.22944 0-0.35812 0.17053-0.12712 0.17053-0.12712 0.48059 0 0.30851 0.12712 0.47904 0.12867 0.17053 0.35812 0.17053 0.23099 0 0.35812-0.17053 0.12868-0.17053 0.12868-0.47904zm0.28525 0.67283q0 0.44338-0.19689 0.65888-0.19689 0.21704-0.60306 0.21704-0.15038 0-0.2837-0.02325-0.13332-0.02171-0.2589-0.06821v-0.27751q0.12557 0.06821 0.24805 0.10077 0.12247 0.03256 0.2496 0.03256 0.2806 0 0.42013-0.14728 0.13953-0.14573 0.13953-0.44183v-0.14108q-0.08837 0.15348-0.22634 0.22944-0.13798 0.07596-0.33021 0.07596-0.31936 0-0.5147-0.2434t-0.19534-0.64492q0-0.40308 0.19534-0.64647t0.5147-0.2434q0.19224 0 0.33021 0.07596 0.13798 0.07597 0.22634 0.22944v-0.26355h0.28525z" direction="ltr"/></g><path d="m34.579 19.008v0.26975q-0.12092-0.06201-0.25115-0.09302-0.13022-0.03101-0.26975-0.03101-0.21239 0-0.31936 0.06511-0.10542 0.06511-0.10542 0.19534 0 0.09922 0.07596 0.15658 0.07596 0.05581 0.30541 0.10697l0.09767 0.0217q0.30386 0.06511 0.43098 0.18448 0.12867 0.11782 0.12867 0.33021 0 0.24184-0.19224 0.38292-0.19069 0.14108-0.52555 0.14108-0.13953 0-0.29146-0.02791-0.15038-0.02635-0.31781-0.08061v-0.29456q0.15813 0.08217 0.31161 0.12402 0.15348 0.04031 0.30386 0.04031 0.20154 0 0.31006-0.06821 0.10852-0.06976 0.10852-0.19534 0-0.11627-0.07906-0.17828-0.07752-0.06201-0.34262-0.11937l-0.09922-0.02325q-0.2651-0.05581-0.38292-0.17053-0.11782-0.11627-0.11782-0.31781 0-0.24495 0.17363-0.37827 0.17363-0.13332 0.49299-0.13332 0.15813 0 0.29766 0.02325t0.25735 0.06976z" direction="rtl"/></g></g></svg>
