<svg xmlns="http://www.w3.org/2000/svg" xmlns:xlink="http://www.w3.org/1999/xlink" width="177.14" height="70.14" viewBox="0 0 177.14 70.14">
  <title>SeisComP logo white</title>
  <g id="Ebene_2" data-name="Ebene 2">
    <g id="Ebene_1-2" data-name="Ebene 1">
      <g>
        <path d="M44.73,45a11.48,11.48,0,0,0,6.1,1.87c2.32,0,3.76-.74,3.76-2.15,0-1-.7-1.64-2.68-2.15l-3.17-.79c-3.42-.85-4.92-2.69-4.92-5.29,0-3.19,2.38-5.77,7.52-5.77a16.24,16.24,0,0,1,6.9,1.53l-1.13,3.62a13,13,0,0,0-5.91-1.53c-2.32,0-3.28.71-3.28,1.81S48.63,37.63,50,38l3.54,1c3.48,1,5.17,2.69,5.17,5.43,0,3.62-3.33,6.08-8,6.08a16.12,16.12,0,0,1-7-1.67Z" fill="#fff"/>
        <path d="M74.27,48.63a9.76,9.76,0,0,1-6.22,2c-5.57,0-8-3.39-8-7.75a7.5,7.5,0,0,1,7.8-7.83c4.49,0,6.61,2.74,6.61,6.17a13.64,13.64,0,0,1-.31,2.88h-10c.36,2.06,1.69,3.22,4.1,3.22a8.1,8.1,0,0,0,4.61-1.52Zm-3.64-8.08c0-1.19-.91-2.21-2.92-2.21a3.32,3.32,0,0,0-3.53,2.72H70.6A3,3,0,0,0,70.63,40.55Z" fill="#fff"/>
        <path d="M76.73,35.46h4V50.24h-4Z" fill="#fff"/>
        <path d="M93.7,39.67a10.54,10.54,0,0,0-4.55-1.16c-1.25,0-2,.34-2,1.22s.37.82,1.47,1.1l2.38.59c3.13.77,4.27,2.26,4.27,4.41,0,2.89-2.49,4.7-6.31,4.7a13.07,13.07,0,0,1-5.74-1.28l.74-3.36a11.06,11.06,0,0,0,4.83,1.36c1.41,0,2.49-.26,2.49-1.13,0-.6-.68-1-1.81-1.28l-2.21-.56c-2.82-.71-4-2-4-4.24,0-2.86,2.24-4.84,6.28-4.84a14.1,14.1,0,0,1,5.28,1.08Z" fill="#fff"/>
        <path d="M106.65,46.85A8.9,8.9,0,0,0,112.28,45l1.86,2.8a10.86,10.86,0,0,1-7.52,2.77,9.9,9.9,0,1,1,0-19.79,10.81,10.81,0,0,1,7.52,2.77l-1.86,2.8a8.91,8.91,0,0,0-5.63-1.9,5.93,5.93,0,0,0-6,6.22A5.93,5.93,0,0,0,106.65,46.85Z" fill="#fff"/>
        <path d="M122.71,35.06a7.79,7.79,0,1,1-7.92,7.83A7.66,7.66,0,0,1,122.71,35.06Zm0,12a4.17,4.17,0,1,0-4.1-4.13A4,4,0,0,0,122.71,47Z" fill="#fff"/>
        <path d="M136.88,35.46V37.1a6.39,6.39,0,0,1,4.83-1.93c2.63,0,4.07.91,4.95,2.46a6.92,6.92,0,0,1,5.4-2.43c4,0,5.6,2.89,5.6,6.53v8.51h-4V42.38c0-2.17-.88-3.53-3-3.53a3.43,3.43,0,0,0-3.42,2.26v9.13h-4V42.36c0-2.15-.85-3.51-3-3.51a3.54,3.54,0,0,0-3.5,2.32v9.07h-4V35.46Z" fill="#fff"/>
        <path d="M161,31h9.19c3.76,0,7,2.2,7,7a6.68,6.68,0,0,1-7,6.9h-5.23v5.31h-4Zm4,3.45v7h4.61A3.34,3.34,0,0,0,173,38a3.31,3.31,0,0,0-3.5-3.53Z" fill="#fff"/>
      </g>
      <g>
        <path d="M46.79,18.79a13.51,13.51,0,0,0-4.93.35,26.32,26.32,0,0,0-8.68,4A20.24,20.24,0,0,1,42,19.68a12.13,12.13,0,0,1,4.59.29,5.5,5.5,0,0,1,3.29,2.42,6.11,6.11,0,0,1-.2,5.3l3.13,0a9.7,9.7,0,0,0,.17-1.1,7.61,7.61,0,0,0-1.45-5.37A7.15,7.15,0,0,0,46.79,18.79Z" fill="#fff"/>
        <path d="M26.37,29.91a13.37,13.37,0,0,0-2.05,4.5A7.21,7.21,0,0,0,25,39.65a7.67,7.67,0,0,0,4.52,3.24,14.26,14.26,0,0,0,5.35.29,18.28,18.28,0,0,0,3-.66L36.67,39a19,19,0,0,1-2.43.77c-2.73.7-5.85.7-7.63-1.27a5.54,5.54,0,0,1-1.11-3.93,11.92,11.92,0,0,1,1.33-4.4A19.25,19.25,0,0,1,32,24.06,24.77,24.77,0,0,0,26.37,29.91Z" fill="#fff"/>
        <path d="M33.18,23.18c-.39.28-.78.58-1.15.88C32.41,23.76,32.78,23.46,33.18,23.18Z" fill="#fff"/>
        <path d="M15.77,30.93a27,27,0,0,0-3.86,8.94,13.69,13.69,0,0,0,1.46,10A14.21,14.21,0,0,0,22,55.69,27.19,27.19,0,0,0,32.27,56a41.39,41.39,0,0,0,9.38-2.65l-1.59-4.56-.05,0a38.44,38.44,0,0,1-8.52,3,24.8,24.8,0,0,1-8.77.52,11.37,11.37,0,0,1-7.31-3.84,11.61,11.61,0,0,1-2-8.34,24.5,24.5,0,0,1,3-8.81A37.77,37.77,0,0,1,22,23.64a49.93,49.93,0,0,1,7.24-6.22,58.84,58.84,0,0,0-7.36,6.1A41.78,41.78,0,0,0,15.77,30.93Z" fill="#fff"/>
        <path d="M66,2.19c4.46,1.05,8.55,3.51,10.83,7.17a14.73,14.73,0,0,1,2.08,6,20.39,20.39,0,0,1-.32,6.46,30,30,0,0,1-1.94,6.07l4.93,0a34.3,34.3,0,0,0,1.17-5.45,23.12,23.12,0,0,0-.27-7.73,18.16,18.16,0,0,0-3.17-7.12,17.8,17.8,0,0,0-5.87-4.93A23.4,23.4,0,0,0,66.38.41,39,39,0,0,0,52,1.05,63.85,63.85,0,0,0,38.43,5.64,79.94,79.94,0,0,0,28.07,11.4a62.72,62.72,0,0,1,24-9.54A36.72,36.72,0,0,1,66,2.19Z" fill="#fff"/>
        <path d="M56.31,9a27.05,27.05,0,0,0-9.72.51,41.33,41.33,0,0,0-9.08,3.13,59.65,59.65,0,0,0-8.28,4.77,50.4,50.4,0,0,1,8.36-4.61,38,38,0,0,1,9.12-2.6,24.4,24.4,0,0,1,9.3.28,11.64,11.64,0,0,1,7.1,4.81,11.39,11.39,0,0,1,1,8.18,19.8,19.8,0,0,1-1.48,4.31l4.15,0a25.13,25.13,0,0,0,.8-3.8,14.26,14.26,0,0,0-2.44-10.16A13.81,13.81,0,0,0,56.31,9Z" fill="#fff"/>
        <path d="M43.78,59.46a63.26,63.26,0,0,1-14.22,5.05,36.34,36.34,0,0,1-13.28.65,17,17,0,0,1-11.09-6C2.55,55.73,1.68,51,2.25,46.48A36.68,36.68,0,0,1,6.8,33.33a64,64,0,0,1,19.28-20.6,80.21,80.21,0,0,0-11,9.1,64.63,64.63,0,0,0-9,11.08A39.06,39.06,0,0,0,.48,46.21a23.08,23.08,0,0,0-.31,7.43,17.63,17.63,0,0,0,2.57,7.21A18.1,18.1,0,0,0,8.3,66.31a23.39,23.39,0,0,0,7.14,2.94,39.74,39.74,0,0,0,15.05.34,59.57,59.57,0,0,0,14.27-4.18L45.7,65Z" fill="#fff"/>
        <path d="M26.08,12.73c.65-.45,1.32-.89,2-1.33C27.4,11.84,26.73,12.28,26.08,12.73Z" fill="#fff"/>
      </g>
    </g>
  </g>
</svg>
